<svg id="Layer_1" data-name="Layer 1" xmlns="http://www.w3.org/2000/svg" viewBox="0 0 402 133.73"><defs><style>.cls-1{fill:none;stroke:#fff;stroke-linecap:round;stroke-linejoin:round;stroke-width:1.42px;}</style></defs><title>Artboard 4</title><path class="cls-1" d="M326,31.25s-50.78.3-60.43.48-84.46,2.08-84.46,2.08-43.7,2.29-62.14,7.9c0,0-27.5,7.2-34.22,9.42S53.41,62.42,53.41,62.42L43.08,67s-2.41,1.2-2.79,2.67a7.38,7.38,0,0,0,0,3l3.05,4.14a16.79,16.79,0,0,0,10.5,5.77c7.2,1.2,10.52-1.17,10.52-1.17L77.92,74A186.18,186.18,0,0,1,97.54,63C106.2,59,114.65,55.26,122.21,53S139.14,47.2,153,46s27.39-1.34,27.39-1.34,19.83,1.15,37.6,6.75,15.75,4.44,15.75,4.44a32.59,32.59,0,0,0,14.08,0c8.28-1.64,25.8-2.21,25.8-2.21L319,50.58l6.82-.12-.38-17S325.22,31.85,326,31.25Z"/><path class="cls-1" d="M329.52,54.61s-.29-3-1.7-4.15l-.26-17.25s-.75-1.17,1.24-1.84,11.79-2.9,11.79-2.9a1.71,1.71,0,0,1,1.81,1.69l.49,7.31s1.24,30.57-2,50.38-4.11,24.38-4.11,24.38-1.69,8.29-3.05,9.49-3.88-1.09-3.88-1.09-2.33-2.4-2.45-7.31,1.58-25,1.58-25l1.1-21.78A109.78,109.78,0,0,0,329.52,54.61Z"/><path class="cls-1" d="M340,28.47a14.32,14.32,0,0,0-3.37-.61c-.73.15-7.44,1.52-9.94,2.79,0,0-1.3.21-1.25,2.86s.38,17,.38,17a9.91,9.91,0,0,1,1.7,4.52c.33,2.75,1.57,18.16-1.59,45.08,0,0-2.8,17.19,3,22.49a3,3,0,0,0,2.08.68,3,3,0,0,0,2.15-1.22"/><path class="cls-1" d="M335.34,27.75l-4.47-.38s0-.29-1.54.1S319,31,319,31V50.58a3,3,0,0,1,2.08,2.22c.48,1.84,1,12.54,1,12.54S322,87.05,320.3,96s-1.14,15.84-.88,16.82.78,7.73,4.75,9.87l5.23.42s2.38.9,3.28-2.61S336,105.07,336,105.07s4.42-28.58,4.81-39,.62-26.89,0-31.49c0,0-.06-4.52-1-5.35"/><path class="cls-1" d="M341,37a4.08,4.08,0,0,0-1.52-2.54,3.63,3.63,0,0,0-1.87-.65c-2.51-.17-9.34,3.17-9.34,3.17l-.53.6"/><line class="cls-1" x1="305.33" y1="31.52" x2="294.64" y2="52.04"/><line class="cls-1" x1="297.16" y1="31.44" x2="286.35" y2="52.65"/><line class="cls-1" x1="293.17" y1="31.25" x2="281.87" y2="53.14"/><line class="cls-1" x1="285.15" y1="31.37" x2="273.58" y2="53.63"/><path class="cls-1" d="M333.05,116.86s-1.58,1.43-2.67-.26a55.7,55.7,0,0,1-2.82-5.78"/></svg>