<svg id="Layer_1" data-name="Layer 1" xmlns="http://www.w3.org/2000/svg" viewBox="0 0 212 215"><defs><style>.cls-1{fill:none;stroke:#fff;stroke-linecap:round;stroke-linejoin:round;}</style></defs><title>Artboard 3</title><path class="cls-1" d="M82.89,194.91a8.67,8.67,0,0,0,2.58-2.41c1.16-1.64,3.34-4.92,4.31-5.22s2.73-.88,3.58,1.94a14.28,14.28,0,0,1,.23,6"/><path class="cls-1" d="M97.44,195.11a18.18,18.18,0,0,0-1.1-3.51c-.8-1.82-1.48-3.34-3-4.13a4.86,4.86,0,0,0-1.76-.49"/><path class="cls-1" d="M128.47,194.53a16.74,16.74,0,0,1-2-2.08c-2.14-2.57-2.32-4.6-4.32-5.21a3,3,0,0,0-2.11-.11c-.42.18-1,.62-1.47,2.05a11.33,11.33,0,0,0-.23,6"/><path class="cls-1" d="M114.44,195.06a17.41,17.41,0,0,1,1.11-3.51c.79-1.82,1.48-3.34,3-4.13a4.67,4.67,0,0,1,1.76-.48"/><line class="cls-1" x1="23.2" y1="185.03" x2="27.66" y2="185.04"/><path class="cls-1" d="M23.17,188.69s14.47,4.06,18.9,5,14.7,2.69,19.63,3.23,8.42.82,8.42.82S101,199.23,106,199.12s32.41-1.06,36.65-1.43,21.28-2.72,23.89-3.27,20.23-4.77,22-5.59"/><path class="cls-1" d="M48,15a65.73,65.73,0,0,1-4.85,9.9l-6.25,9.32s-5.86,9.07-8.42,14.75A86.39,86.39,0,0,0,21.7,69.05c-1.93,9.17-1.94,26.45-1.94,26.45l.16,16.82L21,152.55,23.27,190s23.89,7.89,46,8.93,37.64,1.34,37.64,1.34,27.33-.51,35.82-1.34,30.86-3.6,46-8.93l.32-4.91,1.43-21.43.48-11.07,1.23-40.65.11-16.4a158.26,158.26,0,0,0-.76-16.92,94,94,0,0,0-1.25-9.53,80.93,80.93,0,0,0-6.78-20.12c-2.06-4.35-4.25-8-5.1-9.46-1.36-2.27-2.56-4.11-3.51-5.58-2.45-3.76-3.34-4.87-6-9a43.06,43.06,0,0,1-3.34-6c-.55-1.23-.93-2.27-1.19-3a1.32,1.32,0,0,0-.59-1c-.59-.26-1.31.35-1.63.74-.16.18-.57.74-.47,2.9a12,12,0,0,0,.75,4.08A13.26,13.26,0,0,0,163.68,25c.57.87.9,1.2,2,2.56.44.56,1,1.35,1.76,2.33l8.64,12.39s3.76,5.93,4.71,8,5.43,12.31,6.4,19.16S188.42,79,188.42,79s.71,12.42.67,16.83-.57,27.84-1.17,37.23-2.54,35.38-2.54,35.38l-1.13,16.86-10.71,2.24-.46,1.8a180,180,0,0,1-30.77,4.82c-15.51.87-30.49,1.33-36.35,1.27s-30.84-.23-36.35-1.27-18.46-1.49-30.78-4.82l-.37-1.8L27.66,185l-1.34-20.86c-2.06-19.41-2.75-34.25-3-44.47,0,0,0-1.14-.44-23.93A133.62,133.62,0,0,1,23.5,79a86.08,86.08,0,0,1,2-12.74,75.28,75.28,0,0,1,5.75-15.88,74.07,74.07,0,0,1,4.64-7.95c.92-1.37.69-.91,2.59-3.61,3.74-5.29,4.47-6.79,6.64-9.58.29-.36,1.16-1.46,2.29-3,.65-.88,1.16-1.6,1.49-2.07a12.32,12.32,0,0,0,.77-1.76,11.42,11.42,0,0,0,.6-2.56,7,7,0,0,0-.16-3.69,1.83,1.83,0,0,0-.88-1.1A1.65,1.65,0,0,0,48,15Z"/><line class="cls-1" x1="22.47" y1="176.62" x2="26.85" y2="176.62"/><line class="cls-1" x1="22.18" y1="171.77" x2="26.8" y2="171.77"/><line class="cls-1" x1="21.73" y1="164.18" x2="26.32" y2="164.18"/><line class="cls-1" x1="22.02" y1="169.03" x2="26.51" y2="169.03"/><line class="cls-1" x1="189.83" y1="169.03" x2="185.42" y2="169.03"/><line class="cls-1" x1="185.72" y1="164.18" x2="190.33" y2="164.31"/><line class="cls-1" x1="185.15" y1="171.83" x2="189.76" y2="171.77"/><line class="cls-1" x1="184.86" y1="176.83" x2="189.54" y2="176.62"/><path class="cls-1" d="M184.62,175.28l-.67,1.34-.74,3.65-1.79.55-2.23.18.51,2.31.23,2.17,3.35-.23.3-2.45.46-.06-.83-2.47"/><circle class="cls-1" cx="181.6" cy="182.74" r="0.93"/><circle class="cls-1" cx="181.6" cy="182.74" r="1.94"/><path class="cls-1" d="M27.36,175.1l.67,1.34.74,3.64,1.79.56,2.22.18-.5,2.31-.23,2.17-3.35-.23-.3-2.45-.46-.07.83-2.47"/><circle class="cls-1" cx="30.37" cy="182.55" r="0.93"/><circle class="cls-1" cx="30.37" cy="182.55" r="1.94"/><path class="cls-1" d="M23.85,185.14l15,4.15"/><polyline class="cls-1" points="173.08 189.29 188.98 185.05 184.25 185.25"/></svg>