<svg id="Layer_1" data-name="Layer 1" xmlns="http://www.w3.org/2000/svg" viewBox="0 0 211 173.33"><defs><style>.cls-1{fill:none;}.cls-1,.cls-2{stroke:#fff;stroke-linecap:round;stroke-linejoin:round;}.cls-2{fill:#fff;}</style></defs><title>Artboard 2</title><path class="cls-1" d="M116.54,28s35.93,41.65,41.33,43.52a65.39,65.39,0,0,1,16,7.9,61.4,61.4,0,0,1,15,14.6c7,9.93,10.19,21.12,10.44,25.61,0,.85.46,3.21,1.3,7.94a8.93,8.93,0,0,0,1,2.92,8.52,8.52,0,0,0,3,3.11c.69.41,2.66,1.6,3.65,1.16,2.2-1,.35-10.67-1.94-18-4.54-14.47-12.22-25.13-21.24-35.37-13.7-15.54-41.6-44.94-41.6-44.94L121.11,15.86Z"/><path class="cls-1" d="M208.24,134.78a8.67,8.67,0,0,1-5.34-1,9.16,9.16,0,0,1-3.5-3.88,11.4,11.4,0,0,1-1.33-4.75,36.8,36.8,0,0,0-.63-6.3,40.53,40.53,0,0,0-2.93-9.13,67.29,67.29,0,0,0-3.27-6.27,101.26,101.26,0,0,0-5.31-8.9,48.74,48.74,0,0,0-9-10,57.39,57.39,0,0,0-9.81-6.38c-2.5-1.37-4.67-2.39-6.28-3.09a32.23,32.23,0,0,1-14.3-10.36c-3.82-4.75-14.66-16.19-33-34.84l3-1.87-4.82-3.58"/><path class="cls-1" d="M34.6,68.16c7.69,9,15,17.1,21.63,24.26,7,7.52,12.62,13.23,18.43,15.71.77.32,4.89,2,10.38,4.76,1.44.72,3.29,1.62,4.29,2.22a53.94,53.94,0,0,1,14,12C110,135.41,113.43,145,113.89,149c.09.74.59,2.79,1.59,6.9a7.83,7.83,0,0,0,1,2.51,7.5,7.5,0,0,0,2.8,2.56c.63.32,2.43,1.25,3.26.81,1.88-1-.28-9.39-2.7-15.65-4.79-12.44-12.13-21.37-20.62-29.85-12.88-12.87-39-37.11-39-37.11Q49.59,70.58,39,62a10.09,10.09,0,0,1-4.36,6.17Z"/><path class="cls-1" d="M32,70.14C53.7,92.42,63,102,64.52,103.74c.1.12.53.59,1.13,1.19a28.56,28.56,0,0,0,4.79,3.83A29.11,29.11,0,0,0,77.65,112c1.45.52,3.41,1.3,5.68,2.36a50.05,50.05,0,0,1,9,5,43.16,43.16,0,0,1,8.46,8.25,89.49,89.49,0,0,1,5.16,7.52,60.45,60.45,0,0,1,3.22,5.31,35.48,35.48,0,0,1,3.08,7.85,32.17,32.17,0,0,1,.9,5.49,10,10,0,0,0,1.44,4.09,7.91,7.91,0,0,0,3.29,3.21,7.62,7.62,0,0,0,4.73.6"/><path class="cls-2" d="M50.35,76.7c.7.33,3.75,1.74,9.47,1.73a39.64,39.64,0,0,0,12.27-2.18c3.55-1.18,6.24-2.08,9.27-4.34,5.92-4.39,9.14-11,10.83-14.51.08-.18,1.68-3.45,3.61-7.91h0l.14-.32c.54-1.25,2-4.54,4.87-10.49,3.73-7.73,4.72-9.3,6.5-11a21,21,0,0,1,4.41-3.22l4.18-11.81.19-1s.36-.56-1.88-.45-18-1.21-32.67,3.42a146.18,146.18,0,0,0-25.79,11s-7,4.31-11,3.71S32,29.91,27,32.91a43.76,43.76,0,0,0-8.8,7.33l-3.13,4.85a.28.28,0,0,1,.21.11c.11.14,0,.39,0,.47-.22.57-5.53,10.38-6.36,11.9-1.46,3.49-3.48,8.5-5.55,14.33a52.68,52.68,0,0,0-2,8.89,12.45,12.45,0,0,0,0,3.52A6.85,6.85,0,0,0,2.1,87a4.48,4.48,0,0,0,1.57,1.75c1.36.68,3.17.06,5.58-1.45A35.78,35.78,0,0,0,18.78,78c2.45-3.22,4.27-5.94,5.56-7.93,1.08-1.66,4.24-6.61,8.27-14.06,1-1.92,2.58-4.84,5-9,2.57-4.44,4.54-7.56,7.46-8a3,3,0,0,1,2.59.5c.72.74.53,2,.37,2.87-.34,2-.6,3.54-.84,4.39-.41,1.51-.78,3-1.17,4.57h0a69.43,69.43,0,0,0-2,13.73,25.92,25.92,0,0,0,.5,4.58c0,.19.07.35.12.55A11.37,11.37,0,0,0,47,74.56,17.78,17.78,0,0,0,50.35,76.7Z"/><path class="cls-1" d="M51.27,77.09c3.45,1.13,11.81,3.46,20.81,1.69a34.34,34.34,0,0,0,8.86-3,36.62,36.62,0,0,0,6.88-4.65l.58-.54c.34-.35,1-1,1.67-1.79a34.81,34.81,0,0,0,4.62-6.87c3.16-6,11.94-24.73,11.94-24.73a24.22,24.22,0,0,1,1.56-2.93,29.46,29.46,0,0,1,2-2.75,3.86,3.86,0,0,1,1.39-1.26,3.74,3.74,0,0,1,1.31-.37,3.63,3.63,0,0,1,.65,0"/><path class="cls-1" d="M116.09,11.59l5,4.27"/><ellipse class="cls-1" cx="102.79" cy="18.81" rx="0.91" ry="0.48" transform="translate(55.81 112.15) rotate(-73.65)"/><path class="cls-1" d="M3.67,88.72A6.29,6.29,0,0,0,8,90.92a5.11,5.11,0,0,0,2.73-.8A46.6,46.6,0,0,0,23.22,79.2a126.92,126.92,0,0,0,6.92-10.74c2-3.26,3.88-6.37,6.16-10.72,1.69-3.25,2.08-4.26,3.83-7.5,1.89-3.53,3.59-6.31,4.71-8.1.34-.54,1.86-1.39,2.64-.91A1.41,1.41,0,0,1,48,42.37"/><path class="cls-1" d="M26,75.17s8.83-7.4,11.06-9.38S40.12,56,40.12,56s-.08-4.75,0-5.78"/><polyline class="cls-1" points="124.88 41.53 127.66 40.59 128.08 22.3"/><polyline class="cls-1" points="128.77 45.56 131.25 44.73 131.57 25.53"/><path class="cls-1" d="M131.77,48.7c.06.07,2.55-.85,2.55-.85l0-19.81"/><polyline class="cls-1" points="135.28 52.39 137.81 51.97 137.76 31.24"/></svg>