<svg id="Layer_1" data-name="Layer 1" xmlns="http://www.w3.org/2000/svg" xmlns:xlink="http://www.w3.org/1999/xlink" viewBox="0 0 264 122.15"><defs><style>.cls-1,.cls-2{fill:none;}.cls-2{stroke:#fff;stroke-linecap:round;stroke-linejoin:round;}.cls-3{clip-path:url(#clip-path);}.cls-4{fill:#2d2a26;}</style><clipPath id="clip-path"><rect class="cls-1" x="34.15" y="28.31" width="10.86" height="10.86"/></clipPath></defs><title>Artboard 5</title><path class="cls-2" d="M27,25.59l-.09,15.85s4.44,1.79,5.55,5.46,5.8,32,5.8,32a22.61,22.61,0,0,0,6.3,12.8c1.13,1.1,3.57,3.21,9.83,5.43a61.51,61.51,0,0,0,20.82,3.37c9.88,0,17.53,0,26.07-4.23a43.43,43.43,0,0,0,17.2-16.07s8.6-15.68,12.15-28.66c0,0,1.42-4.25,7.28-4.37s7.25,4.37,7.25,4.37L151.29,68a60.49,60.49,0,0,0,8.3,15.87A38.28,38.28,0,0,0,165.93,91a37.63,37.63,0,0,0,14.31,7.42,51.44,51.44,0,0,0,11.54,2,78.3,78.3,0,0,0,15.33-.22c6.48-.72,12.95-1.49,19.76-5.3a19.74,19.74,0,0,0,6.63-5.45,19.49,19.49,0,0,0,3.42-8.18c2.5-12.25,4.86-28.61,5.08-30.13a11.27,11.27,0,0,1,6.86-9.68l-.09-15.85-15.15-2.31s-35-4.86-62.47,1.57S134.37,30,134.37,30s-21.84-3.26-27.9-4.56-23-3.49-23-3.49S54.64,19.61,27,25.59Z"/><path class="cls-2" d="M40.4,51.58l-1.3-7.06a2.71,2.71,0,0,1,.18-2.09c.13-.22.61-.9,2.82-1.25,3.06-.48,4.8.42,5.72-.61a1.78,1.78,0,0,0,.44-1V29.47a1.72,1.72,0,0,1,.4-1.07,1.76,1.76,0,0,1,1.08-.53c1-.17,8.54-.42,18.83-.64,2.81.05,6.16.17,9.92.39,4.08.24,7,.5,9.11.71a231.9,231.9,0,0,1,33,5.7A4.59,4.59,0,0,1,123,35.56a6.27,6.27,0,0,1,.89,2.48c.6,2.38.75,3.11.75,3.11a50.9,50.9,0,0,1,.92,5.08,16.76,16.76,0,0,1-.56,4.61,33.1,33.1,0,0,1-1.83,5.81c-2.88,7-4.32,10.51-5,11.92C114.66,75.45,112,80.75,106.57,86c-5.15,5-9.15,6.47-10.52,6.92a43.35,43.35,0,0,1-4.44,1.13,60.6,60.6,0,0,1-8.56,1.2,64.15,64.15,0,0,1-15.23-.69,58.45,58.45,0,0,1-8-2A57.36,57.36,0,0,1,54,90.32a15.79,15.79,0,0,1-5-3.84c-1.86-2.17-2.66-4.38-3.54-7.34a104.62,104.62,0,0,1-2.89-12.69C41.87,62.34,41.13,57.33,40.4,51.58Z"/><path class="cls-2" d="M235.16,51.58l1.3-7.06a2.71,2.71,0,0,0-.18-2.09c-.13-.22-.61-.9-2.82-1.25-3.06-.48-4.8.42-5.72-.61a1.78,1.78,0,0,1-.44-1V29.47a1.72,1.72,0,0,0-.4-1.07,1.76,1.76,0,0,0-1.08-.53c-1-.17-8.54-.42-18.83-.64-2.81.05-6.16.17-9.92.39-4.08.24-7,.5-9.11.71a231.9,231.9,0,0,0-33,5.7,4.59,4.59,0,0,0-2.37,1.53,6.27,6.27,0,0,0-.89,2.48c-.6,2.38-.74,3.11-.74,3.11a47.87,47.87,0,0,0-.92,5.08,16.75,16.75,0,0,0,.55,4.61,33.1,33.1,0,0,0,1.83,5.81c2.88,7,4.32,10.51,5,11.92C160.9,75.45,163.58,80.75,169,86c5.15,5,9.16,6.47,10.52,6.92A43.35,43.35,0,0,0,184,94.06a60.6,60.6,0,0,0,8.56,1.2,64.15,64.15,0,0,0,15.23-.69,58.45,58.45,0,0,0,8-2,57.36,57.36,0,0,0,5.83-2.25,15.69,15.69,0,0,0,5-3.84c1.86-2.17,2.66-4.38,3.54-7.34A102.56,102.56,0,0,0,233,66.45C233.69,62.34,234.43,57.33,235.16,51.58Z"/><circle class="cls-2" cx="232.02" cy="34.16" r="0.89"/><g id="Circle-Black"><g class="cls-3"><g class="cls-3"><path class="cls-4" d="M40.37,31.19l-2.24,5.1H36.82l2.25-5.1Zm.66,0-2.25,5.1h1.31l2.25-5.1Zm4,2.55a5.43,5.43,0,1,0-5.43,5.43A5.44,5.44,0,0,0,45,33.74m-.68,0A4.76,4.76,0,1,1,39.58,29a4.76,4.76,0,0,1,4.75,4.75"/></g></g></g></svg>